<svg width="53" height="53" viewBox="0 0 53 53" fill="none" xmlns="http://www.w3.org/2000/svg">
<g clip-path="url(#clip0_2_183)">
<path d="M23.8914 37.3317C19.7826 36.9032 16.078 35.8913 12.9063 33.4106C12.5127 33.102 12.1064 32.8045 11.7472 32.4597C10.359 31.1264 10.2191 29.5994 11.3176 28.0257C12.2574 26.6791 13.8349 26.3188 15.4746 27.0921C15.7921 27.242 16.0947 27.429 16.3844 27.63C22.2955 31.6915 30.4158 31.8036 36.3491 27.8126C36.937 27.3619 37.5653 26.9944 38.2936 26.8068C39.7096 26.4432 41.0302 26.9633 41.7901 28.2022C42.6582 29.6172 42.6471 30.9982 41.5775 32.0967C39.9366 33.7808 37.9633 34.9993 35.7707 35.8496C33.6975 36.6534 31.4267 37.0581 29.1791 37.3267C29.5183 37.6959 29.6781 37.8774 29.8902 38.0905C32.942 41.1568 36.0072 44.2103 39.0491 47.286C40.0854 48.334 40.3019 49.6335 39.7313 50.8525C39.1074 52.1847 37.7108 53.0611 36.3414 52.9673C35.4738 52.9074 34.7971 52.4755 34.196 51.8699C31.8929 49.5525 29.5466 47.2777 27.2902 44.9164C26.6335 44.2298 26.3177 44.3596 25.7381 44.9558C23.4212 47.341 21.0666 49.6896 18.698 52.0248C17.6345 53.0734 16.3689 53.2621 15.1355 52.6631C13.8244 52.0276 12.9901 50.6893 13.0545 49.3443C13.0989 48.4345 13.5463 47.7395 14.1707 47.1162C17.191 44.1004 20.2028 41.0769 23.2158 38.0561C23.4151 37.8552 23.6011 37.642 23.8914 37.3317Z" fill="black"/>
<path d="M26.3943 26.8267C19.0644 26.8017 13.0539 20.7252 13.0967 13.3837C13.1388 5.9611 19.1532 -0.0204854 26.5552 5.2731e-05C33.9723 0.0200358 39.9255 6.08766 39.8884 13.5874C39.8506 20.914 33.7985 26.8523 26.3943 26.8267ZM33.0558 13.4015C33.0431 9.75621 30.14 6.85423 26.5019 6.8509C22.8334 6.84702 19.9042 9.80173 19.9325 13.4803C19.9597 17.1116 22.8878 19.9931 26.5358 19.9798C30.1727 19.967 33.068 17.0461 33.0558 13.4015Z" fill="black"/>
</g>
<defs>
<clipPath id="clip0_2_183">
<rect width="53" height="53" fill="white"/>
</clipPath>
</defs>
</svg>
