<svg width="69" height="69" viewBox="0 0 69 69" fill="none" xmlns="http://www.w3.org/2000/svg">
<path fill-rule="evenodd" clip-rule="evenodd" d="M62.505 12.0669C62.505 14.0517 60.8957 15.6606 58.912 15.6606C56.9268 15.6606 55.3175 14.0517 55.3175 12.0669C55.3175 10.0821 56.9268 8.47314 58.912 8.47314C60.8957 8.47314 62.505 10.0821 62.505 12.0669ZM7.90662 13.8804C6.5259 13.8804 5.40662 14.9997 5.40662 16.3804V58.3708C5.40662 59.7515 6.5259 60.8708 7.90662 60.8708H18.7385C20.1192 60.8708 21.2385 59.7515 21.2385 58.3708V47.2099H38.1857L46.9103 59.7951C47.3773 60.4689 48.145 60.8708 48.9649 60.8708H61.0938C62.0438 60.8708 62.9118 60.3323 63.3337 59.4811C63.7556 58.6298 63.6586 57.613 63.0833 56.857L54.8909 46.0906C56.8175 45.3138 58.4426 44.1648 59.6509 42.5659L59.6511 42.5656C61.5694 40.0264 62.2968 36.3369 62.2968 32.1192V28.9714C62.2968 26.4165 62.0222 24.2583 61.4688 22.4943C60.887 20.6398 59.8905 19.0468 58.5399 17.6589C58.5067 17.6248 58.4725 17.5916 58.4374 17.5594C57.0007 16.2425 55.3886 15.3066 53.4961 14.6946C53.4667 14.6851 53.4372 14.6761 53.4076 14.6677C51.5746 14.149 49.3895 13.8804 46.8244 13.8804H7.90662ZM10.4066 55.8708V18.8804H46.8244C49.0325 18.8804 50.7256 19.1109 52.0012 19.4662C53.1782 19.8528 54.1327 20.409 55.0061 21.1972C55.8328 22.0602 56.3777 22.9699 56.698 23.991C57.0531 25.1228 57.2968 26.7416 57.2968 28.9714V32.1192C57.2968 35.9594 56.5967 38.3139 55.6616 39.5517C54.7563 40.7495 53.1201 41.7338 50.2675 42.1766C49.3969 42.3118 48.6617 42.8952 48.3323 43.7124C48.0029 44.5295 48.128 45.4597 48.6615 46.1609L56.05 55.8708H50.2737L41.5492 43.2856C41.0821 42.6118 40.3144 42.2099 39.4946 42.2099H18.7385C17.3578 42.2099 16.2385 43.3292 16.2385 44.7099V55.8708H10.4066ZM18.7385 23.1346C17.3578 23.1346 16.2385 24.2539 16.2385 25.6346V35.456C16.2385 36.8367 17.3578 37.956 18.7385 37.956H45.0732C45.0948 37.956 45.1164 37.9557 45.138 37.9552C45.9485 37.9526 46.7383 37.9002 47.4533 37.757C48.1526 37.6168 49.017 37.3448 49.7394 36.7314C51.0598 35.6104 51.4649 33.9091 51.4649 32.3079V28.7824C51.4649 27.2178 51.0468 25.5319 49.7402 24.422C49.0603 23.8443 48.2431 23.5457 47.5248 23.3797C46.7776 23.2071 45.9465 23.1346 45.0732 23.1346H18.7385ZM45.0732 32.9553C45.0529 32.9553 45.0327 32.9555 45.0126 32.956H21.2385V28.1346H45.0732C45.6912 28.1346 46.1248 28.188 46.3992 28.2514L46.4212 28.2566C46.4439 28.3709 46.4649 28.5424 46.4649 28.7824V32.3079C46.4649 32.5575 46.4455 32.7387 46.4234 32.8635C46.1346 32.9165 45.6965 32.9553 45.0732 32.9553Z" fill="black"/>
</svg>
