<svg width="53" height="53" viewBox="0 0 53 53" fill="none" xmlns="http://www.w3.org/2000/svg">
<g clip-path="url(#clip0_2_157)">
<path d="M53 26.5C53 11.8645 41.1355 0 26.5 0C11.8645 0 0 11.8645 0 26.5C0 41.1355 11.8645 53 26.5 53C41.1355 53 53 41.1355 53 26.5Z" fill="white"/>
<path fill-rule="evenodd" clip-rule="evenodd" d="M22.3695 0.282109C16.4177 1.35633 12.0066 3.65328 7.75184 7.89458C4.2798 11.3557 2.26604 14.6586 0.909559 19.1163C0.163571 21.5688 0 22.9109 0 26.5836C0 31.8361 0.882235 35.3587 3.27179 39.6478C5.18936 43.0891 9.94227 47.827 13.3945 49.7385C17.6971 52.1206 21.2309 53 26.5 53C31.7691 53 35.3029 52.1206 39.6055 49.7385C43.0577 47.827 47.8106 43.0891 49.7282 39.6478C52.1178 35.3587 53 31.8361 53 26.5836C53 21.3311 52.1178 17.8085 49.7282 13.5194C47.8106 10.0781 43.0577 5.34017 39.6055 3.42866C34.6965 0.710828 27.3882 -0.623462 22.3695 0.282109ZM28.3142 18.8872C28.8207 19.3062 28.933 20.139 28.933 23.4695C28.933 26.9015 29.0295 27.5768 29.548 27.775C30.4006 28.1011 31.9282 26.1791 33.8307 22.386L35.3751 19.3077H39.2436C41.5579 19.3077 43.2104 19.4663 43.3568 19.7021C43.8243 20.4562 43.1539 21.833 40.5428 25.4814C39.0983 27.5 37.9163 29.4007 37.9163 29.7051C37.9163 30.0092 39.0849 31.4599 40.5132 32.9282C43.1831 35.6729 44.0672 37.3963 43.1135 37.9982C42.8283 38.1784 40.9466 38.328 38.9318 38.3314L35.2685 38.337L33.0503 36.0982C31.8305 34.8669 30.5863 33.8595 30.2861 33.8595C29.7441 33.8595 29.0805 35.4233 28.8604 37.2176C28.7481 38.1314 28.6811 38.1501 25.5642 38.1396C22.9669 38.131 22.039 37.962 20.5111 37.2187C16.9159 35.4703 13.6194 31.3458 9.90971 23.9542C8.89122 21.9251 8.14075 20.0495 8.24218 19.7864C8.37356 19.445 9.41413 19.3077 11.8733 19.3077H15.3203L16.904 22.421C18.8661 26.2788 20.3322 28.1093 21.195 27.7795C21.7089 27.5828 21.8212 26.9993 21.8212 24.5187C21.8212 21.3423 21.4304 20.0539 20.4666 20.0539C19.6472 20.0539 20.0264 19.211 21.1022 18.6405C22.2921 18.0096 27.4676 18.1864 28.3142 18.8872Z" fill="black"/>
</g>
<defs>
<clipPath id="clip0_2_157">
<rect width="53" height="53" fill="white"/>
</clipPath>
</defs>
</svg>
