<svg width="74" height="53" viewBox="0 0 74 53" fill="none" xmlns="http://www.w3.org/2000/svg">
<path fill-rule="evenodd" clip-rule="evenodd" d="M27.7383 0.0657345C18.1891 0.304539 11.3458 0.778744 8.57481 1.39374C7.15989 1.70776 5.3779 2.63692 4.33136 3.60635C3.15826 4.69304 2.09046 6.35594 1.65122 7.78018C-0.332094 14.2104 -0.586499 34.4114 1.20258 43.4181C1.70618 45.9537 2.39606 47.3399 3.93261 48.9029C5.69941 50.7004 7.16553 51.3931 10.1657 51.848C19.8314 53.3142 51.7262 53.4011 63.028 51.9922C65.2831 51.7111 66.7204 51.322 67.939 50.6629C69.9479 49.5761 71.5987 47.5675 72.3145 45.3392C74.5454 38.3931 74.5668 15.0015 72.3486 7.81409C71.4733 4.97759 69.143 2.62523 66.2822 1.69014C63.9155 0.916431 58.0866 0.422091 47.6973 0.113554C43.4268 -0.0131765 31.9916 -0.0405655 27.7383 0.0657345ZM39.1991 20.7784C44.3901 23.8384 48.6826 26.3868 48.7382 26.4413C48.8177 26.5195 41.815 30.709 30.3168 37.462L29.6185 37.8721V26.5433C29.6185 20.3125 29.6505 15.2145 29.6896 15.2145C29.7288 15.2145 34.008 17.7182 39.1991 20.7784Z" fill="black"/>
</svg>
